<?xml version="1.0" encoding="UTF-8" standalone="no"?>
<svg
   version="1.1"
   id="Layer_1"
   x="0px"
   y="0px"
   width="877.56"
   height="218.95"
   viewBox="0 0 877.55998 218.95"
   xml:space="preserve"
   sodipodi:docname="ADR.svg"
   inkscape:version="1.3.2 (091e20e, 2023-11-25, custom)"
   xmlns:inkscape="http://www.inkscape.org/namespaces/inkscape"
   xmlns:sodipodi="http://sodipodi.sourceforge.net/DTD/sodipodi-0.dtd"
   xmlns="http://www.w3.org/2000/svg"
   xmlns:svg="http://www.w3.org/2000/svg"><defs
   id="defs25" /><sodipodi:namedview
   id="namedview25"
   pagecolor="#ffffff"
   bordercolor="#000000"
   borderopacity="0.25"
   inkscape:showpageshadow="2"
   inkscape:pageopacity="0.0"
   inkscape:pagecheckerboard="true"
   inkscape:deskcolor="#d1d1d1"
   inkscape:zoom="0.70320174"
   inkscape:cx="393.20153"
   inkscape:cy="571.67094"
   inkscape:window-width="1350"
   inkscape:window-height="1212"
   inkscape:window-x="3907"
   inkscape:window-y="239"
   inkscape:window-maximized="0"
   inkscape:current-layer="Layer_1" />
<path
   fill="#ffffff"
   d="m 182.45,68.08 c 3.27,-0.79 6.68,-1.22 10.19,-1.22 10,0 19.21,3.4 26.57,9.09 2.37,-6.2 3.69,-12.92 3.69,-19.95 0,-30.88 -25.12,-56 -56,-56 -18.74,0 -35.36,9.27 -45.52,23.45 25.47,6.8 47.15,22.99 61.07,44.63"
   id="path1" />
<path
   fill="#ffffff"
   d="m 110.9,56.01 c 0,24.68 16.06,45.67 38.27,53.11 0.47,-16.32 9.96,-30.42 23.66,-37.46 -13.12,-19.4 -33.25,-33.69 -56.72,-39.21 -3.33,7.17 -5.21,15.15 -5.21,23.56"
   id="path2" />
<path
   fill="#ffffff"
   d="m 150.2,119.86 c -28.33,-7.42 -49.29,-33.23 -49.29,-63.85 0,-8.98 1.81,-17.54 5.07,-25.36 -3.77,-0.46 -7.6,-0.7 -11.48,-0.7 -52.11,0 -94.5,42.39 -94.5,94.5 0,52.11 42.39,94.5 94.5,94.5 42.12,0 77.89,-27.71 90.05,-65.85 -17.04,-3.21 -30.59,-16.4 -34.35,-33.24"
   id="path3" />
<path
   fill="#ffffff"
   d="m 159.14,110.37 c 0,0.37 0.02,0.73 0.03,1.09 2.53,0.35 5.11,0.54 7.73,0.54 7.3,0 14.27,-1.42 20.67,-3.97 -1.74,-9.87 -5.01,-19.22 -9.57,-27.79 -11.16,5.45 -18.86,16.91 -18.86,30.13"
   id="path4" />
<path
   fill="#ffffff"
   d="m 188.99,124.45 c 0,-2.08 -0.08,-4.14 -0.21,-6.19 -6.85,2.42 -14.22,3.75 -21.89,3.75 -1.94,0 -3.87,-0.1 -5.77,-0.27 4.05,11.21 13.93,19.64 25.95,21.66 1.27,-6.12 1.92,-12.46 1.92,-18.95"
   id="path5" />
<path
   fill="#ffffff"
   d="m 226.15,110.37 c 0,-6.28 -1.74,-12.15 -4.76,-17.18 -5.88,8.6 -13.74,15.74 -22.92,20.76 0.35,3.46 0.53,6.96 0.53,10.5 0,6.52 -0.61,12.9 -1.76,19.1 16.3,-2.25 28.91,-16.26 28.91,-33.18"
   id="path6" />
<path
   fill="#ffffff"
   d="m 214.68,85.17 c -5.9,-5.16 -13.61,-8.3 -22.04,-8.3 -1.68,0 -3.33,0.13 -4.94,0.37 4.14,8.13 7.24,16.88 9.14,26.06 7.24,-4.61 13.36,-10.81 17.84,-18.13"
   id="path7" />
<g
   id="g10"
   transform="translate(-50.53,-30.46)">
	<path
   fill="#ffffff"
   d="m 327.17,76.89 h 12.38 l 29.57,67.97 h -16.9 l -5.86,-14.4 h -26.4 l -5.66,14.4 h -16.51 z m 5.76,19.78 -8.26,21.12 h 16.61 z"
   id="path8" />
	<path
   fill="#ffffff"
   d="m 375.94,76.89 h 22.46 c 5.44,0 10.61,0.61 15.5,1.82 4.9,1.22 9.17,3.18 12.82,5.9 3.65,2.72 6.54,6.26 8.69,10.61 2.14,4.35 3.21,9.63 3.21,15.84 0,5.5 -1.04,10.35 -3.12,14.54 -2.08,4.19 -4.88,7.71 -8.4,10.56 -3.52,2.85 -7.58,5.01 -12.19,6.48 -4.61,1.47 -9.44,2.21 -14.5,2.21 H 375.93 V 76.89 Z m 14.97,54.15 h 7.78 c 3.46,0 6.67,-0.35 9.65,-1.06 2.98,-0.7 5.55,-1.87 7.73,-3.5 2.17,-1.63 3.89,-3.78 5.13,-6.43 1.24,-2.65 1.87,-5.9 1.87,-9.74 0,-3.33 -0.62,-6.22 -1.87,-8.69 -1.25,-2.46 -2.93,-4.5 -5.04,-6.1 -2.11,-1.6 -4.59,-2.8 -7.44,-3.6 -2.85,-0.8 -5.84,-1.2 -8.98,-1.2 h -8.83 z"
   id="path9" />
	<path
   fill="#ffffff"
   d="m 446.88,76.89 h 26.3 c 3.46,0 6.73,0.34 9.84,1.01 3.1,0.67 5.82,1.79 8.16,3.36 2.34,1.57 4.19,3.68 5.57,6.34 1.38,2.66 2.06,5.97 2.06,9.94 0,4.8 -1.25,8.88 -3.74,12.24 -2.49,3.36 -6.14,5.49 -10.94,6.38 l 17.28,28.7 h -17.95 l -14.21,-27.17 h -7.39 v 27.17 h -14.98 z m 14.98,28.13 h 8.83 c 1.34,0 2.77,-0.05 4.27,-0.14 1.5,-0.1 2.86,-0.38 4.08,-0.87 1.21,-0.48 2.22,-1.23 3.02,-2.26 0.8,-1.02 1.2,-2.46 1.2,-4.32 0,-1.73 -0.35,-3.1 -1.06,-4.13 -0.71,-1.02 -1.6,-1.81 -2.69,-2.35 -1.09,-0.54 -2.34,-0.91 -3.74,-1.1 -1.41,-0.19 -2.78,-0.29 -4.13,-0.29 h -9.79 v 15.46 z"
   id="path10" />
</g>
<g
   id="g25"
   transform="translate(-50.53,-30.46)">
	<path
   fill="#ffffff"
   d="m 298.71,160.1 h 8.06 l 24.96,37.25 h 0.13 V 160.1 H 338 v 45.31 h -7.81 l -25.21,-37.25 h -0.13 v 37.25 h -6.14 z"
   id="path11" />
	<path
   fill="#ffffff"
   d="m 369.18,206.56 c -3.46,0 -6.64,-0.61 -9.54,-1.82 -2.9,-1.21 -5.39,-2.89 -7.46,-5.02 -2.07,-2.13 -3.69,-4.65 -4.86,-7.55 -1.17,-2.9 -1.76,-6.04 -1.76,-9.41 0,-3.37 0.59,-6.51 1.76,-9.41 1.17,-2.9 2.79,-5.42 4.86,-7.55 2.07,-2.13 4.55,-3.81 7.46,-5.02 2.9,-1.22 6.08,-1.82 9.54,-1.82 3.46,0 6.63,0.61 9.54,1.82 2.9,1.22 5.39,2.89 7.46,5.02 2.07,2.13 3.69,4.65 4.86,7.55 1.17,2.9 1.76,6.04 1.76,9.41 0,3.37 -0.59,6.51 -1.76,9.41 -1.17,2.9 -2.79,5.42 -4.86,7.55 -2.07,2.13 -4.56,3.81 -7.46,5.02 -2.91,1.22 -6.09,1.82 -9.54,1.82 z m 0,-5.76 c 2.6,0 4.95,-0.48 7.04,-1.44 2.09,-0.96 3.88,-2.25 5.38,-3.87 1.49,-1.62 2.64,-3.53 3.46,-5.73 0.81,-2.2 1.22,-4.53 1.22,-7.01 0,-2.47 -0.41,-4.81 -1.22,-7.01 -0.81,-2.2 -1.96,-4.11 -3.46,-5.73 -1.49,-1.62 -3.29,-2.91 -5.38,-3.87 -2.09,-0.96 -4.44,-1.44 -7.04,-1.44 -2.6,0 -4.95,0.48 -7.04,1.44 -2.09,0.96 -3.88,2.25 -5.38,3.87 -1.49,1.62 -2.65,3.53 -3.46,5.73 -0.81,2.2 -1.21,4.53 -1.21,7.01 0,2.48 0.4,4.81 1.21,7.01 0.81,2.2 1.96,4.11 3.46,5.73 1.49,1.62 3.29,2.91 5.38,3.87 2.09,0.96 4.43,1.44 7.04,1.44 z"
   id="path12" />
	<path
   fill="#ffffff"
   d="m 400.34,160.1 h 15.94 c 2.9,0 5.29,0.39 7.17,1.18 1.88,0.79 3.36,1.79 4.45,3.01 1.09,1.22 1.84,2.58 2.27,4.1 0.43,1.52 0.64,2.98 0.64,4.38 0,1.45 -0.26,2.85 -0.77,4.19 -0.51,1.34 -1.25,2.56 -2.21,3.65 -0.96,1.09 -2.13,2.01 -3.52,2.75 -1.39,0.75 -2.93,1.21 -4.64,1.38 l 12.86,20.67 h -7.68 l -11.52,-19.97 h -6.85 v 19.97 h -6.14 z m 6.15,19.97 h 8.06 c 1.19,0 2.38,-0.1 3.55,-0.29 1.17,-0.19 2.22,-0.54 3.14,-1.06 0.92,-0.51 1.65,-1.25 2.21,-2.21 0.55,-0.96 0.83,-2.21 0.83,-3.74 0,-1.53 -0.28,-2.78 -0.83,-3.74 -0.55,-0.96 -1.29,-1.7 -2.21,-2.21 -0.92,-0.51 -1.96,-0.86 -3.14,-1.06 -1.17,-0.19 -2.36,-0.29 -3.55,-0.29 h -8.06 z"
   id="path13" />
	<path
   fill="#ffffff"
   d="m 447.77,165.86 h -14.59 v -5.76 h 35.33 v 5.76 h -14.59 v 39.55 h -6.14 v -39.55 z"
   id="path14" />
	<path
   fill="#ffffff"
   d="m 475.03,160.1 h 6.14 v 18.82 h 23.49 V 160.1 h 6.14 v 45.31 h -6.14 v -20.74 h -23.49 v 20.74 h -6.14 z"
   id="path15" />
	<path
   fill="#ffffff"
   d="m 521.17,160.1 h 29.25 v 5.76 h -23.1 v 13.5 h 21.5 v 5.76 h -21.5 v 14.53 h 24.26 v 5.76 h -30.4 V 160.1 Z"
   id="path16" />
	<path
   fill="#ffffff"
   d="m 560.28,160.1 h 15.94 c 2.9,0 5.29,0.39 7.17,1.18 1.88,0.79 3.36,1.79 4.45,3.01 1.09,1.22 1.84,2.58 2.27,4.1 0.43,1.52 0.64,2.98 0.64,4.38 0,1.45 -0.26,2.85 -0.77,4.19 -0.51,1.34 -1.25,2.56 -2.21,3.65 -0.96,1.09 -2.13,2.01 -3.52,2.75 -1.39,0.75 -2.93,1.21 -4.64,1.38 l 12.86,20.67 h -7.68 l -11.52,-19.97 h -6.85 v 19.97 h -6.14 z m 6.14,19.97 h 8.06 c 1.19,0 2.38,-0.1 3.55,-0.29 1.17,-0.19 2.22,-0.54 3.14,-1.06 0.92,-0.51 1.65,-1.25 2.21,-2.21 0.55,-0.96 0.83,-2.21 0.83,-3.74 0,-1.53 -0.28,-2.78 -0.83,-3.74 -0.55,-0.96 -1.29,-1.7 -2.21,-2.21 -0.92,-0.51 -1.96,-0.86 -3.14,-1.06 -1.17,-0.19 -2.36,-0.29 -3.55,-0.29 h -8.06 z"
   id="path17" />
	<path
   fill="#ffffff"
   d="m 599.38,160.1 h 8.06 l 24.96,37.25 h 0.13 V 160.1 h 6.14 v 45.31 h -7.81 l -25.22,-37.25 h -0.13 v 37.25 h -6.14 V 160.1 Z"
   id="path18" />
	<path
   fill="#ffffff"
   d="m 665.56,160.1 h 6.14 v 45.31 h -6.14 z"
   id="path19" />
	<path
   fill="#ffffff"
   d="m 683.35,160.1 h 15.94 c 2.9,0 5.29,0.39 7.17,1.18 1.88,0.79 3.36,1.79 4.45,3.01 1.09,1.22 1.84,2.58 2.27,4.1 0.43,1.52 0.64,2.98 0.64,4.38 0,1.45 -0.26,2.85 -0.77,4.19 -0.51,1.34 -1.25,2.56 -2.21,3.65 -0.96,1.09 -2.13,2.01 -3.52,2.75 -1.39,0.75 -2.93,1.21 -4.64,1.38 l 12.86,20.67 h -7.68 l -11.52,-19.97 h -6.85 v 19.97 h -6.14 z m 6.14,19.97 h 8.06 c 1.19,0 2.38,-0.1 3.55,-0.29 1.17,-0.19 2.22,-0.54 3.14,-1.06 0.92,-0.51 1.65,-1.25 2.21,-2.21 0.55,-0.96 0.83,-2.21 0.83,-3.74 0,-1.53 -0.28,-2.78 -0.83,-3.74 -0.55,-0.96 -1.29,-1.7 -2.21,-2.21 -0.92,-0.51 -1.96,-0.86 -3.14,-1.06 -1.17,-0.19 -2.36,-0.29 -3.55,-0.29 h -8.06 z"
   id="path20" />
	<path
   fill="#ffffff"
   d="m 722.45,160.1 h 29.25 v 5.76 h -23.1 v 13.5 h 21.5 v 5.76 h -21.5 v 14.53 h 24.26 v 5.76 h -30.4 V 160.1 Z"
   id="path21" />
	<path
   fill="#ffffff"
   d="m 761.55,160.1 h 6.14 v 39.55 h 20.8 v 5.76 h -26.94 z"
   id="path22" />
	<path
   fill="#ffffff"
   d="m 808.98,160.1 h 5.57 l 19.39,45.31 h -7.17 l -4.54,-11.2 h -21.57 l -4.48,11.2 h -7.17 z m 11.01,28.74 -8.45,-20.8 h -0.13 l -8.58,20.8 z"
   id="path23" />
	<path
   fill="#ffffff"
   d="m 839.83,160.1 h 8.06 l 24.96,37.25 h 0.13 V 160.1 h 6.14 v 45.31 h -7.81 l -25.22,-37.25 h -0.13 v 37.25 h -6.14 V 160.1 Z"
   id="path24" />
	<path
   fill="#ffffff"
   d="m 888.47,160.1 h 15.81 c 3.2,0 6,0.36 8.42,1.09 2.41,0.73 4.5,1.7 6.27,2.91 1.77,1.22 3.24,2.61 4.42,4.19 1.17,1.58 2.1,3.2 2.78,4.86 0.68,1.66 1.17,3.33 1.47,4.99 0.3,1.66 0.45,3.2 0.45,4.61 0,2.9 -0.53,5.71 -1.6,8.42 -1.07,2.71 -2.65,5.12 -4.74,7.23 -2.09,2.11 -4.68,3.81 -7.78,5.09 -3.1,1.28 -6.67,1.92 -10.72,1.92 h -14.78 z m 6.14,39.55 h 7.74 c 2.6,0 5.07,-0.35 7.39,-1.06 2.33,-0.7 4.36,-1.76 6.11,-3.17 1.75,-1.41 3.14,-3.17 4.16,-5.28 1.02,-2.11 1.54,-4.58 1.54,-7.39 0,-1.45 -0.23,-3.15 -0.7,-5.09 -0.47,-1.94 -1.35,-3.79 -2.66,-5.54 -1.3,-1.75 -3.1,-3.23 -5.41,-4.45 -2.3,-1.22 -5.29,-1.82 -8.96,-1.82 h -9.22 v 33.8 z"
   id="path25" />
</g>
</svg>
