<?xml version="1.0" encoding="UTF-8" standalone="no"?>
<svg
   role="img"
   width="260"
   height="86"
   viewBox="0 0 260 86"
   preserveAspectRatio="xMinYMin meet"
   version="1.1"
   id="svg15"
   sodipodi:docname="DE.svg"
   inkscape:version="1.3.2 (091e20e, 2023-11-25, custom)"
   xmlns:inkscape="http://www.inkscape.org/namespaces/inkscape"
   xmlns:sodipodi="http://sodipodi.sourceforge.net/DTD/sodipodi-0.dtd"
   xmlns="http://www.w3.org/2000/svg"
   xmlns:svg="http://www.w3.org/2000/svg"
   xmlns:rdf="http://www.w3.org/1999/02/22-rdf-syntax-ns#"
   xmlns:cc="http://creativecommons.org/ns#"
   xmlns:dc="http://purl.org/dc/elements/1.1/">
  <sodipodi:namedview
     id="namedview15"
     pagecolor="#ffffff"
     bordercolor="#000000"
     borderopacity="0.25"
     inkscape:showpageshadow="2"
     inkscape:pageopacity="0.0"
     inkscape:pagecheckerboard="0"
     inkscape:deskcolor="#d1d1d1"
     inkscape:zoom="1.4052885"
     inkscape:cx="185.37119"
     inkscape:cy="104.96066"
     inkscape:window-width="3440"
     inkscape:window-height="1369"
     inkscape:window-x="1912"
     inkscape:window-y="-8"
     inkscape:window-maximized="1"
     inkscape:current-layer="svg15" />
  <title
     id="title1">Department of Education</title>
  <defs
     id="defs1">
    <style
       id="style1">
      @import url(https://fonts.googleapis.com/css2?family=Libre+Bodoni%3Aital%2Cwght%400%2C400%3B0%2C500%3B0%2C600%3B0%2C700%3B1%2C400%3B1%2C500%3B1%2C600%3B1%2C700&amp;display=swap);
      @import url(https://fonts.googleapis.com/css2?family=Libre+Franklin%3Aital%2Cwght%400%2C100%3B0%2C200%3B0%2C300%3B0%2C400%3B0%2C500%3B0%2C600%3B0%2C700%3B0%2C800%3B0%2C900%3B1%2C100%3B1%2C200%3B1%2C300%3B1%2C400%3B1%2C500%3B1%2C600%3B1%2C700%3B1%2C800%3B1%2C900&amp;display=swap);
      .svg-logo-txt-sm {font-family: &quot;Libre Franklin&quot;, sans-serif; letter-spacing: -0.2px; white-space: nowrap; font-size: 14px;}
      .svg-logo-txt-lg {font-family: &quot;Libre Bodoni&quot;, Georgia; font-size: 40px; letter-spacing: -1.5px; white-space: nowrap;}
    </style>
  </defs>
  <g
     style="fill:#ffffff"
     transform="matrix(0.689608, 0, 0, 0.689608, 0.162956, 0.198013)"
     id="g14">
    <path
       d="M 51.182 0.504 L 64.092 7.958 L 64.092 22.865 L 51.182 30.318 L 38.272 22.865 L 38.272 7.958 L 51.182 0.504 Z"
       style="stroke:rgb(0, 0, 0);stroke-width:0px;fill:#ffffff"
       id="path1" />
    <path
       d="M 51.182 30.4 L 64.092 37.854 L 64.092 52.761 L 51.182 60.214 L 38.272 52.761 L 38.272 37.854 L 51.182 30.4 Z"
       style="stroke:rgb(0, 0, 0);stroke-width:0px;fill:#ffffff"
       id="path2" />
    <path
       d="M 51.182 60.214 L 64.092 67.667 L 64.092 82.574 L 51.182 90.028 L 38.272 82.575 L 38.272 67.667 L 51.182 60.214 Z"
       style="stroke:rgb(0, 0, 0);stroke-width:0px;fill:#ffffff"
       id="path3" />
    <path
       d="M 51.182 90.028 L 64.092 97.482 L 64.092 112.389 L 51.182 119.842 L 38.272 112.389 L 38.272 97.482 L 51.182 90.028 Z"
       style="stroke:rgb(0, 0, 0);stroke-width:0px;fill:#ffffff"
       id="path4" />
    <path
       d="M 77.002 15.452 L 89.912 22.906 L 89.912 37.813 L 77.002 45.266 L 64.092 37.813 L 64.092 22.906 L 77.002 15.452 Z"
       style="stroke:rgb(0, 0, 0);stroke-width:0px;fill:#ffffff"
       id="path5" />
    <path
       d="M 77.002 45.266 L 89.912 52.72 L 89.912 67.627 L 77.002 75.08 L 64.092 67.627 L 64.092 52.72 L 77.002 45.266 Z"
       style="stroke:rgb(0, 0, 0);stroke-width:0px;fill:#ffffff"
       id="path6" />
    <path
       d="M 77.002 75.08 L 89.912 82.533 L 89.912 97.44 L 77.002 104.894 L 64.092 97.441 L 64.092 82.533 L 77.002 75.08 Z"
       style="stroke:rgb(0, 0, 0);stroke-width:0px;fill:#ffffff"
       id="path7" />
    <path
       d="M 25.362 15.452 L 38.272 22.906 L 38.272 37.813 L 25.362 45.266 L 12.452 37.813 L 12.452 22.906 L 25.362 15.452 Z"
       style="stroke:rgb(0, 0, 0);stroke-width:0px;fill:#ffffff"
       id="path8" />
    <path
       d="M 25.362 45.266 L 38.272 52.72 L 38.272 67.627 L 25.362 75.08 L 12.452 67.627 L 12.452 52.72 L 25.362 45.266 Z"
       style="stroke:rgb(0, 0, 0);stroke-width:0px;fill:#ffffff"
       id="path9" />
    <path
       d="M 25.362 75.08 L 38.272 82.533 L 38.272 97.44 L 25.362 104.894 L 12.452 97.441 L 12.452 82.533 L 25.362 75.08 Z"
       style="stroke:rgb(0, 0, 0);stroke-width:0px;fill:#ffffff"
       id="path10" />
    <path
       d="M 12.435 60.132 C 12.482 45.134 12.417 30.316 12.435 30.318 L 0.525 37.771 L 0.525 52.678 L 12.435 60.132 Z"
       style="stroke:rgb(0, 0, 0);stroke-width:0px;fill:#ffffff"
       transform="matrix(-1, 0, 0, -1, 12.977422, 90.450001)"
       id="path11" />
    <path
       d="M 12.435 90.11 C 12.482 75.112 12.417 60.294 12.435 60.296 L 0.525 67.749 L 0.525 82.656 L 12.435 90.11 Z"
       style="stroke:rgb(0, 0, 0);stroke-width:0px;paint-order:fill;fill:#ffffff"
       transform="matrix(-1, 0, 0, -1, 12.977422, 150.405998)"
       id="path12" />
    <path
       d="M 101.822 30.318 C 101.869 45.316 101.804 60.134 101.822 60.132 L 89.912 52.679 L 89.912 37.772 L 101.822 30.318 Z"
       style="stroke:rgb(0, 0, 0);stroke-width:0px;fill:#ffffff"
       id="path13" />
    <path
       d="M 101.822 60.132 C 101.869 75.13 101.804 89.948 101.822 89.946 L 89.912 82.493 L 89.912 67.586 L 101.822 60.132 Z"
       style="stroke:rgb(0, 0, 0);stroke-width:0px;fill:#ffffff"
       id="path14" />
  </g>
  <g
     style="fill:#ffffff"
     aria-hidden="true"
     id="g15">
    <text
       role="presentation"
       class="svg-logo-txt-sm"
       x="86.916"
       y="13"
       id="text14"
       style="fill:#ffffff">Department of</text>
    <text
       role="presentation"
       class="svg-logo-txt-lg"
       x="83.308"
       y="54"
       id="text15"
       style="fill:#ffffff">Education</text>
  </g>
  <metadata
     id="metadata15">
    <rdf:RDF>
      <cc:Work
         rdf:about="">
        <dc:title>Department of Education</dc:title>
      </cc:Work>
    </rdf:RDF>
  </metadata>
</svg>
