<?xml version="1.0" encoding="UTF-8" standalone="no"?>
<svg
   role="img"
   width="213.56816"
   height="82.29644"
   viewBox="0 0 213.56816 82.29644"
   preserveAspectRatio="xMinYMin"
   version="1.1"
   id="svg17"
   sodipodi:docname="DoF.svg"
   inkscape:version="1.3.2 (091e20e, 2023-11-25, custom)"
   xmlns:inkscape="http://www.inkscape.org/namespaces/inkscape"
   xmlns:sodipodi="http://sodipodi.sourceforge.net/DTD/sodipodi-0.dtd"
   xmlns="http://www.w3.org/2000/svg"
   xmlns:svg="http://www.w3.org/2000/svg"
   xmlns:rdf="http://www.w3.org/1999/02/22-rdf-syntax-ns#"
   xmlns:cc="http://creativecommons.org/ns#"
   xmlns:dc="http://purl.org/dc/elements/1.1/">
  <sodipodi:namedview
     id="namedview17"
     pagecolor="#ffffff"
     bordercolor="#000000"
     borderopacity="0.25"
     inkscape:showpageshadow="2"
     inkscape:pageopacity="0.0"
     inkscape:pagecheckerboard="0"
     inkscape:deskcolor="#d1d1d1"
     inkscape:zoom="1.6994186"
     inkscape:cx="124.45433"
     inkscape:cy="189.77078"
     inkscape:window-width="1920"
     inkscape:window-height="1009"
     inkscape:window-x="-8"
     inkscape:window-y="479"
     inkscape:window-maximized="1"
     inkscape:current-layer="svg17" />
  <title
     id="title1">Department of Finance</title>
  <defs
     id="defs1">
    <style
       id="style1">
      @import url(https://fonts.googleapis.com/css2?family=Libre+Bodoni%3Aital%2Cwght%400%2C400%3B0%2C500%3B0%2C600%3B0%2C700%3B1%2C400%3B1%2C500%3B1%2C600%3B1%2C700&amp;display=swap);
      @import url(https://fonts.googleapis.com/css2?family=Libre+Franklin%3Aital%2Cwght%400%2C100%3B0%2C200%3B0%2C300%3B0%2C400%3B0%2C500%3B0%2C600%3B0%2C700%3B0%2C800%3B0%2C900%3B1%2C100%3B1%2C200%3B1%2C300%3B1%2C400%3B1%2C500%3B1%2C600%3B1%2C700%3B1%2C800%3B1%2C900&amp;display=swap);
      .svg-logo-txt-sm {font-family: &quot;Libre Franklin&quot;, sans-serif; letter-spacing: -0.2px; white-space: nowrap; font-size: 14px;}
      .svg-logo-txt-lg {font-family: &quot;Libre Bodoni&quot;, Georgia; font-size: 40px; letter-spacing: -1.5px; white-space: nowrap;}
    </style>
  </defs>
  <g
     transform="matrix(0.689608,0,0,0.689608,-0.36204512,-0.34756243)"
     id="g14"
     style="fill:#ffffff">
    <path
       d="m 51.182,0.504 12.91,7.454 v 14.907 l -12.91,7.453 -12.91,-7.453 V 7.958 Z"
       style="fill:#ffffff;stroke:#000000;stroke-width:0px"
       id="path1" />
    <path
       d="m 51.182,30.4 12.91,7.454 v 14.907 l -12.91,7.453 -12.91,-7.453 V 37.854 Z"
       style="fill:#ffffff;stroke:#000000;stroke-width:0px"
       id="path2" />
    <path
       d="m 51.182,60.214 12.91,7.453 v 14.907 l -12.91,7.454 -12.91,-7.453 V 67.667 Z"
       style="fill:#ffffff;stroke:#000000;stroke-width:0px"
       id="path3" />
    <path
       d="m 51.182,90.028 12.91,7.454 v 14.907 l -12.91,7.453 -12.91,-7.453 V 97.482 Z"
       style="fill:#ffffff;stroke:#000000;stroke-width:0px"
       id="path4" />
    <path
       d="m 77.002,15.452 12.91,7.454 v 14.907 l -12.91,7.453 -12.91,-7.453 V 22.906 Z"
       style="fill:#ffffff;stroke:#000000;stroke-width:0px"
       id="path5" />
    <path
       d="m 77.002,45.266 12.91,7.454 V 67.627 L 77.002,75.08 64.092,67.627 V 52.72 Z"
       style="fill:#ffffff;stroke:#000000;stroke-width:0px"
       id="path6" />
    <path
       d="m 77.002,75.08 12.91,7.453 V 97.44 l -12.91,7.454 -12.91,-7.453 V 82.533 Z"
       style="fill:#ffffff;stroke:#000000;stroke-width:0px"
       id="path7" />
    <path
       d="m 25.362,15.452 12.91,7.454 v 14.907 l -12.91,7.453 -12.91,-7.453 V 22.906 Z"
       style="fill:#ffffff;stroke:#000000;stroke-width:0px"
       id="path8" />
    <path
       d="m 25.362,45.266 12.91,7.454 V 67.627 L 25.362,75.08 12.452,67.627 V 52.72 Z"
       style="fill:#ffffff;stroke:#000000;stroke-width:0px"
       id="path9" />
    <path
       d="m 25.362,75.08 12.91,7.453 V 97.44 l -12.91,7.454 -12.91,-7.453 V 82.533 Z"
       style="fill:#ffffff;stroke:#000000;stroke-width:0px"
       id="path10" />
    <path
       d="m 12.435,60.132 c 0.047,-14.998 -0.018,-29.816 0,-29.814 l -11.91,7.453 v 14.907 z"
       style="fill:#ffffff;stroke:#000000;stroke-width:0px"
       transform="rotate(180,6.488711,45.225)"
       id="path11" />
    <path
       d="m 12.435,90.11 c 0.047,-14.998 -0.018,-29.816 0,-29.814 l -11.91,7.453 v 14.907 z"
       style="fill:#ffffff;stroke:#000000;stroke-width:0px;paint-order:fill"
       transform="rotate(180,6.488711,75.202999)"
       id="path12" />
    <path
       d="m 101.822,30.318 c 0.047,14.998 -0.018,29.816 0,29.814 L 89.912,52.679 V 37.772 Z"
       style="fill:#ffffff;stroke:#000000;stroke-width:0px"
       id="path13" />
    <path
       d="m 101.822,60.132 c 0.047,14.998 -0.018,29.816 0,29.814 L 89.912,82.493 V 67.586 Z"
       style="fill:#ffffff;stroke:#000000;stroke-width:0px"
       id="path14" />
  </g>
  <g
     style="fill:#ffffff"
     aria-hidden="true"
     id="g17"
     transform="translate(-0.52500112,-0.54557543)">
    <text
       role="presentation"
       class="svg-logo-txt-sm"
       x="86.916"
       y="13"
       id="text14"
       style="fill:#ffffff">Department of</text>
    <text
       role="presentation"
       class="svg-logo-txt-lg"
       x="83.307999"
       y="54"
       id="text15"
       style="fill:#ffffff">Finance</text>
  </g>
  <metadata
     id="metadata17">
    <rdf:RDF>
      <cc:Work
         rdf:about="">
        <dc:title>Department of Finance</dc:title>
      </cc:Work>
    </rdf:RDF>
  </metadata>
</svg>
